<svg xmlns="http://www.w3.org/2000/svg">
  <symbol id="icon-catalog" viewBox="0 0 24 24" fill="none" stroke="currentColor" stroke-width="1.7" stroke-linecap="square" stroke-linejoin="miter">
    <path d="M3 3h7v7H3zM14 3h7v7h-7zM3 14h7v7H3zM14 14h3v3h4v4h-7z"/>
  </symbol>
  <symbol id="icon-brand" viewBox="0 0 24 24" fill="none" stroke="currentColor" stroke-width="1.7" stroke-linecap="square" stroke-linejoin="miter">
    <path d="M18.8 6.4A8.7 8.7 0 1 0 20.2 15"/>
    <path d="M15.5 4.6 19 6.4l-1.6 3.5M9 9h6v6H9z"/>
  </symbol>
  <symbol id="icon-bag" viewBox="0 0 24 24" fill="none" stroke="currentColor" stroke-width="1.7" stroke-linecap="square" stroke-linejoin="miter">
    <path d="M5 8h14l1 13H4L5 8Z"/>
    <path d="M8 8V6a4 4 0 0 1 8 0v2M9 13h6"/>
  </symbol>
  <symbol id="icon-forward" viewBox="0 0 24 24" fill="none" stroke="currentColor" stroke-width="1.7" stroke-linecap="square" stroke-linejoin="miter">
    <path d="M3 12h15M13 6l6 6-6 6M21 5v14"/>
  </symbol>
  <symbol id="icon-back" viewBox="0 0 24 24" fill="none" stroke="currentColor" stroke-width="1.7" stroke-linecap="square" stroke-linejoin="miter">
    <path d="M21 12H6M11 6l-6 6 6 6M3 5v14"/>
  </symbol>
  <symbol id="icon-open" viewBox="0 0 24 24" fill="none" stroke="currentColor" stroke-width="1.7" stroke-linecap="square" stroke-linejoin="miter">
    <path d="M5 19 19 5M10 5h9v9M5 8v11h11"/>
  </symbol>
  <symbol id="icon-plus" viewBox="0 0 24 24" fill="none" stroke="currentColor" stroke-width="1.7" stroke-linecap="square" stroke-linejoin="miter">
    <path d="M5 12h14M12 5v14M5 8v-3h3M16 19h3v-3"/>
  </symbol>
  <symbol id="icon-minus" viewBox="0 0 24 24" fill="none" stroke="currentColor" stroke-width="1.7" stroke-linecap="square" stroke-linejoin="miter">
    <path d="M5 12h14M5 8v8M19 8v8"/>
  </symbol>
  <symbol id="icon-prev" viewBox="0 0 24 24" fill="none" stroke="currentColor" stroke-width="1.7" stroke-linecap="square" stroke-linejoin="miter">
    <path d="m14.5 5-7 7 7 7M18 5h-3M18 19h-3"/>
  </symbol>
  <symbol id="icon-next" viewBox="0 0 24 24" fill="none" stroke="currentColor" stroke-width="1.7" stroke-linecap="square" stroke-linejoin="miter">
    <path d="m9.5 5 7 7-7 7M6 5h3M6 19h3"/>
  </symbol>
</svg>
